# xmcd
#
# Track frame offsets:
#	180
#	29894
#	70930
#	103768
#	119837
#
# Disc length: 1869 seconds
#
# Revision: 0
# Processed by: cddbd v1.4PL0 Copyright (c) Steve Scherf et al.
# Submitted via: dBpowerAMP V4.0
#
DISCID=4d074b05
DTITLE=Annie - A chorus line
DYEAR=1900
DGENRE=
TTITLE0=One
TTITLE1=what i did for love
TTITLE2=Pirates of penzance
TTITLE3=A modern major general
TTITLE4=42 nd Street
EXTD=
EXTT0=
EXTT1=
EXTT2=
EXTT3=
EXTT4=
PLAYORDER=
